<svg preserveAspectRatio="none" width="100%" height="100%" overflow="visible" style="display: block;" viewBox="0 0 31.9967 31.9967" fill="none" xmlns="http://www.w3.org/2000/svg">
<g id="Icon">
<path id="Vector" d="M21.3311 27.9971V25.3307C21.3311 23.9164 20.7693 22.56 19.7692 21.5599C18.7691 20.5598 17.4127 19.9979 15.9983 19.9979H7.99917C6.58483 19.9979 5.22842 20.5598 4.22833 21.5599C3.22824 22.56 2.66639 23.9164 2.66639 25.3307V27.9971" stroke="var(--stroke-0, white)" stroke-width="2.66639" stroke-linecap="round" stroke-linejoin="round"/>
<path id="Vector_2" d="M21.3311 4.1703C22.4747 4.46677 23.4874 5.13456 24.2104 6.06886C24.9334 7.00316 25.3256 8.15108 25.3256 9.33243C25.3256 10.5138 24.9334 11.6617 24.2104 12.596C23.4874 13.5303 22.4747 14.1981 21.3311 14.4946" stroke="var(--stroke-0, white)" stroke-width="2.66639" stroke-linecap="round" stroke-linejoin="round"/>
<path id="Vector_3" d="M29.3303 27.9971V25.3307C29.3294 24.1491 28.9361 23.0013 28.2122 22.0675C27.4883 21.1336 26.4748 20.4666 25.3307 20.1712" stroke="var(--stroke-0, white)" stroke-width="2.66639" stroke-linecap="round" stroke-linejoin="round"/>
<path id="Vector_4" d="M11.9988 14.6651C14.944 14.6651 17.3315 12.2776 17.3315 9.33237C17.3315 6.38715 14.944 3.99959 11.9988 3.99959C9.05354 3.99959 6.66598 6.38715 6.66598 9.33237C6.66598 12.2776 9.05354 14.6651 11.9988 14.6651Z" stroke="var(--stroke-0, white)" stroke-width="2.66639" stroke-linecap="round" stroke-linejoin="round"/>
</g>
</svg>
