<svg preserveAspectRatio="none" width="100%" height="100%" overflow="visible" style="display: block;" viewBox="0 0 49.4942 49.4942" fill="none" xmlns="http://www.w3.org/2000/svg">
<g id="Icon">
<path id="Vector" d="M31.9175 26.5823L35.0419 44.1651C35.0768 44.3722 35.0478 44.5849 34.9586 44.775C34.8694 44.9651 34.7243 45.1234 34.5426 45.2288C34.361 45.3342 34.1516 45.3816 33.9423 45.3648C33.733 45.3479 33.5338 45.2675 33.3714 45.1344L25.9885 39.5931C25.6321 39.3268 25.1992 39.1829 24.7543 39.1829C24.3094 39.1829 23.8764 39.3268 23.52 39.5931L16.1247 45.1323C15.9625 45.2652 15.7636 45.3454 15.5545 45.3623C15.3455 45.3792 15.1362 45.332 14.9547 45.2269C14.7732 45.1218 14.6281 44.9639 14.5387 44.7742C14.4493 44.5845 14.4198 44.372 14.4543 44.1651L17.5766 26.5823" stroke="var(--stroke-0, #0D8A8A)" stroke-width="4.12452" stroke-linecap="round" stroke-linejoin="round"/>
<path id="Vector_2" d="M24.747 28.8716C31.5807 28.8716 37.1205 23.3318 37.1205 16.4981C37.1205 9.66435 31.5807 4.12452 24.747 4.12452C17.9132 4.12452 12.3734 9.66435 12.3734 16.4981C12.3734 23.3318 17.9132 28.8716 24.747 28.8716Z" stroke="var(--stroke-0, #0D8A8A)" stroke-width="4.12452" stroke-linecap="round" stroke-linejoin="round"/>
</g>
</svg>
