<svg preserveAspectRatio="none" width="100%" height="100%" overflow="visible" style="display: block;" viewBox="0 0 63.9934 63.9934" fill="none" xmlns="http://www.w3.org/2000/svg">
<g id="Icon">
<path id="Vector" d="M53.3278 34.663C53.3278 47.9949 43.9954 54.6609 32.9033 58.5272C32.3224 58.724 31.6915 58.7146 31.1168 58.5005C19.9979 54.6609 10.6656 47.9949 10.6656 34.663V15.9982C10.6656 15.2911 10.9465 14.6129 11.4465 14.1128C11.9466 13.6128 12.6248 13.3318 13.332 13.3318C18.6647 13.3318 25.3307 10.1322 29.9702 6.07927C30.5351 5.59665 31.2537 5.33148 31.9967 5.33148C32.7397 5.33148 33.4583 5.59665 34.0231 6.07927C38.6893 10.1588 45.3286 13.3318 50.6614 13.3318C51.3686 13.3318 52.0468 13.6128 52.5468 14.1128C53.0469 14.6129 53.3278 15.2911 53.3278 15.9982V34.663Z" stroke="var(--stroke-0, #0D8A8A)" stroke-width="5.33278" stroke-linecap="round" stroke-linejoin="round"/>
</g>
</svg>
