<svg preserveAspectRatio="none" width="100%" height="100%" overflow="visible" style="display: block;" viewBox="0 0 15.9983 15.9983" fill="none" xmlns="http://www.w3.org/2000/svg">
<g id="Icon" clip-path="url(#clip0_192_3439)">
<path id="Vector" d="M13.332 6.66598C13.332 9.9943 9.63967 13.4606 8.3998 14.5312C8.28429 14.618 8.14369 14.665 7.99917 14.665C7.85465 14.665 7.71405 14.618 7.59855 14.5312C6.35867 13.4606 2.66639 9.9943 2.66639 6.66598C2.66639 5.25163 3.22824 3.89522 4.22833 2.89513C5.22842 1.89504 6.58483 1.3332 7.99917 1.3332C9.41351 1.3332 10.7699 1.89504 11.77 2.89513C12.7701 3.89522 13.332 5.25163 13.332 6.66598Z" stroke="var(--stroke-0, #D1D5DC)" stroke-width="1.3332" stroke-linecap="round" stroke-linejoin="round"/>
<path id="Vector_2" d="M7.99917 8.66577C9.10363 8.66577 9.99896 7.77043 9.99896 6.66598C9.99896 5.56152 9.10363 4.66618 7.99917 4.66618C6.89472 4.66618 5.99938 5.56152 5.99938 6.66598C5.99938 7.77043 6.89472 8.66577 7.99917 8.66577Z" stroke="var(--stroke-0, #D1D5DC)" stroke-width="1.3332" stroke-linecap="round" stroke-linejoin="round"/>
</g>
<defs>
<clipPath id="clip0_192_3439">
<rect width="15.9983" height="15.9983" fill="white"/>
</clipPath>
</defs>
</svg>
