<svg preserveAspectRatio="none" width="100%" height="100%" overflow="visible" style="display: block;" viewBox="0 0 15.9983 15.9983" fill="none" xmlns="http://www.w3.org/2000/svg">
<g id="Icon" clip-path="url(#clip0_192_3436)">
<path id="Vector" d="M9.22038 11.0442C9.35805 11.1074 9.51315 11.1219 9.66013 11.0851C9.8071 11.0484 9.93719 10.9627 10.029 10.8422L10.2656 10.5322C10.3898 10.3667 10.5508 10.2323 10.7359 10.1397C10.9211 10.0472 11.1252 9.99896 11.3322 9.99896H13.3319C13.6855 9.99896 14.0246 10.1394 14.2747 10.3894C14.5247 10.6395 14.6651 10.9786 14.6651 11.3322V13.3319C14.6651 13.6855 14.5247 14.0246 14.2747 14.2747C14.0246 14.5247 13.6855 14.6651 13.3319 14.6651C10.1497 14.6651 7.09775 13.401 4.84755 11.1508C2.59735 8.90059 1.3332 5.84866 1.3332 2.66639C1.3332 2.3128 1.47366 1.9737 1.72368 1.72368C1.9737 1.47366 2.3128 1.3332 2.66639 1.3332H4.66618C5.01977 1.3332 5.35887 1.47366 5.60889 1.72368C5.85892 1.9737 5.99938 2.3128 5.99938 2.66639V4.66618C5.99938 4.87315 5.95119 5.07728 5.85863 5.26241C5.76607 5.44753 5.63168 5.60856 5.4661 5.73274L5.15413 5.96671C5.03176 6.06016 4.9455 6.19308 4.91002 6.34291C4.87454 6.49274 4.89201 6.65023 4.95949 6.78863C5.87051 8.63901 7.36885 10.1355 9.22038 11.0442Z" stroke="var(--stroke-0, white)" stroke-width="1.3332" stroke-linecap="round" stroke-linejoin="round"/>
</g>
<defs>
<clipPath id="clip0_192_3436">
<rect width="15.9983" height="15.9983" fill="white"/>
</clipPath>
</defs>
</svg>
