<svg preserveAspectRatio="none" width="100%" height="100%" overflow="visible" style="display: block;" viewBox="0 0 15.9983 15.9983" fill="none" xmlns="http://www.w3.org/2000/svg">
<g id="Icon" clip-path="url(#clip0_191_3412)">
<path id="Vector" d="M10.6656 5.33278C11.7263 5.33278 12.7436 5.75416 13.4937 6.50423C14.2438 7.2543 14.6651 8.27161 14.6651 9.33237V13.9985H11.9988V9.33237C11.9988 8.97878 11.8583 8.63968 11.6083 8.38965C11.3582 8.13963 11.0191 7.99917 10.6656 7.99917C10.312 7.99917 9.97287 8.13963 9.72285 8.38965C9.47283 8.63968 9.33237 8.97878 9.33237 9.33237V13.9985H6.66598V9.33237C6.66598 8.27161 7.08736 7.2543 7.83743 6.50423C8.58749 5.75416 9.6048 5.33278 10.6656 5.33278Z" stroke="var(--stroke-0, white)" stroke-width="1.3332" stroke-linecap="round" stroke-linejoin="round"/>
<path id="Vector_2" d="M3.99959 5.99938H1.3332V13.9985H3.99959V5.99938Z" stroke="var(--stroke-0, white)" stroke-width="1.3332" stroke-linecap="round" stroke-linejoin="round"/>
<path id="Vector_3" d="M2.66639 3.99959C3.40269 3.99959 3.99959 3.40269 3.99959 2.66639C3.99959 1.93009 3.40269 1.3332 2.66639 1.3332C1.93009 1.3332 1.3332 1.93009 1.3332 2.66639C1.3332 3.40269 1.93009 3.99959 2.66639 3.99959Z" stroke="var(--stroke-0, white)" stroke-width="1.3332" stroke-linecap="round" stroke-linejoin="round"/>
</g>
<defs>
<clipPath id="clip0_191_3412">
<rect width="15.9983" height="15.9983" fill="white"/>
</clipPath>
</defs>
</svg>
