<svg preserveAspectRatio="none" width="100%" height="100%" overflow="visible" style="display: block;" viewBox="0 0 49.4942 49.4942" fill="none" xmlns="http://www.w3.org/2000/svg">
<g id="Icon">
<path id="Vector" d="M44.421 30.9339H35.0583C33.9644 30.9339 32.9153 31.3684 32.1418 32.1419C31.3683 32.9154 30.9338 33.9645 30.9338 35.0584V44.4211" stroke="var(--stroke-0, #0D8A8A)" stroke-width="4.12452" stroke-linecap="round" stroke-linejoin="round"/>
<path id="Vector_2" d="M14.4358 6.88816V10.3115C14.4358 11.9523 15.0876 13.526 16.2478 14.6862C17.4081 15.8465 18.9817 16.4983 20.6225 16.4983C21.7164 16.4983 22.7655 16.9328 23.539 17.7063C24.3125 18.4798 24.7471 19.5289 24.7471 20.6228C24.7471 22.8913 26.6031 24.7473 28.8716 24.7473C29.9655 24.7473 31.0146 24.3128 31.7881 23.5393C32.5615 22.7658 32.9961 21.7167 32.9961 20.6228C32.9961 18.3543 34.8521 16.4983 37.1206 16.4983H43.658" stroke="var(--stroke-0, #0D8A8A)" stroke-width="4.12452" stroke-linecap="round" stroke-linejoin="round"/>
<path id="Vector_3" d="M22.6847 45.2666V37.1207C22.6847 36.0268 22.2502 34.9777 21.4767 34.2042C20.7032 33.4307 19.6541 32.9962 18.5602 32.9962C17.4663 32.9962 16.4172 32.5616 15.6437 31.7881C14.8702 31.0146 14.4357 29.9656 14.4357 28.8717V26.8094C14.4357 25.7155 14.0011 24.6664 13.2276 23.8929C12.4541 23.1194 11.4051 22.6849 10.3112 22.6849H4.2275" stroke="var(--stroke-0, #0D8A8A)" stroke-width="4.12452" stroke-linecap="round" stroke-linejoin="round"/>
<path id="Vector_4" d="M24.747 45.3697C36.1365 45.3697 45.3696 36.1367 45.3696 24.7471C45.3696 13.3576 36.1365 4.12452 24.747 4.12452C13.3574 4.12452 4.1244 13.3576 4.1244 24.7471C4.1244 36.1367 13.3574 45.3697 24.747 45.3697Z" stroke="var(--stroke-0, #0D8A8A)" stroke-width="4.12452" stroke-linecap="round" stroke-linejoin="round"/>
</g>
</svg>
